<svg width="80" height="87" viewBox="0 0 80 87" fill="none" xmlns="http://www.w3.org/2000/svg">
<path d="M74.8013 52.4545C75.9094 51.4392 76.6639 50.0933 76.9468 48.6175C77.442 46.0792 76.6403 43.2221 74.5891 40.1406C69.3076 32.3249 63.6607 32.1124 59.9236 31.9707C59.3223 25.5718 58.002 18.0984 55.0901 11.7585C49.7025 0.129368 42.5348 -0.213012 40.0474 0.0585311C37.5835 -0.213012 30.3922 0.0585314 25.0518 11.7467C22.1399 18.0984 20.8195 25.56 20.2183 31.9589C16.4812 32.1006 10.7871 32.3131 5.5528 40.1288C3.46615 43.2103 2.6645 46.0319 3.19501 48.6057C3.47794 50.0815 4.23244 51.4274 5.3406 52.4427C4.58611 55.0637 1.39129 66.988 0.389231 70.4354C-0.506732 73.5876 0.188818 80.6832 2.01611 83.1153L2.2401 83.3632C4.02024 85.3112 5.56459 86.9995 19.4049 86.9995H60.5955C74.4358 86.9995 75.9212 85.3112 77.7603 83.3632L77.9843 83.1153C79.8116 80.6832 80.4953 73.5876 79.6112 70.4354C78.6916 66.988 75.485 55.0047 74.8013 52.4545ZM73.1626 41.0851C76.605 46.1736 75.3318 49.2196 74.259 50.5891C72.9622 46.6577 70.6044 43.163 67.4567 40.483C65.3819 38.7475 62.8944 37.6023 60.2301 37.1537C60.2301 36.0557 60.1122 34.8751 60.0179 33.6118C63.7903 33.7889 68.4352 34.084 73.1626 41.0851ZM58.6621 58.393H58.5089H58.3556C57.8251 58.4167 57.3182 58.2041 56.9763 57.8027C55.6206 56.2915 55.0783 52.2656 55.4438 46.6459C56.2218 47.248 57.1649 47.6022 58.1552 47.6494C58.3321 47.7084 58.5089 47.7438 58.6975 47.7438C58.9215 47.732 59.1337 47.6848 59.3341 47.5904C60.124 47.4369 60.8667 47.0945 61.4915 46.5986C61.857 52.2184 61.3147 56.2443 59.9589 57.7555C59.6406 58.1451 59.1691 58.3812 58.6621 58.393ZM40.0474 47.1771C38.7977 47.1771 34.5537 46.9056 32.7618 43.4464C31.7243 41.4511 30.18 39.751 28.2937 38.5232H51.7892C49.9029 39.751 48.3586 41.4511 47.3211 43.4464C45.541 46.9056 41.3206 47.1771 40.0474 47.1771ZM55.373 36.8467H23.2127C23.2127 35.7841 23.3306 34.6862 23.4249 33.5173C25.9006 33.5173 29.1897 33.5173 32.6085 33.5173H39.5876H40.4718H47.4626C50.8932 33.5173 54.1705 33.4583 56.6462 33.5173C56.7405 34.698 56.7995 35.7841 56.8584 36.8467H55.432H55.373ZM28.0933 13.1516C32.078 4.47406 36.8643 3.36427 38.9628 3.34066C39.3046 3.49414 39.6819 3.52956 40.0474 3.44692C40.4128 3.54137 40.7901 3.50595 41.1319 3.35247C43.254 3.35247 48.0167 4.53309 51.9896 13.1516C54.4888 19.0902 56.0096 25.4065 56.5048 31.8291C54.0762 31.8291 50.9404 31.8291 47.4508 31.8291C45.093 31.8291 42.5584 31.8291 40.1063 31.8291C37.6542 31.8291 35.0488 31.8291 32.6203 31.8291C29.0836 31.8291 25.9949 31.77 23.5664 31.8291C24.0615 25.3947 25.5941 19.0902 28.0933 13.1516ZM6.87317 41.0733C11.5888 34.084 16.3043 33.7889 20.0179 33.6472C19.9236 34.8278 19.8528 36.0085 19.8057 37.1891C17.1414 37.6377 14.6539 38.7829 12.579 40.5184C9.43138 43.1984 7.07358 46.6931 5.77679 50.6246C4.75115 49.2078 3.48973 46.1618 6.92032 41.0733H6.87317ZM21.7273 58.393H21.574H21.4208C20.9138 58.4049 20.4187 58.1805 20.0886 57.8027C18.7329 56.2915 18.1906 52.2656 18.556 46.6459C19.1809 47.1417 19.9236 47.4841 20.7134 47.6376C20.9256 47.732 21.1496 47.7911 21.3854 47.7911C21.574 47.7911 21.7509 47.7556 21.9277 47.6966C22.8944 47.614 23.8139 47.248 24.5684 46.6459C24.9339 52.2656 24.3916 56.2915 23.0359 57.8027C22.7058 58.1805 22.2342 58.393 21.7273 58.393ZM7.05 52.3365C8.16996 48.2397 10.4806 44.568 13.6872 41.7817C15.4438 40.3295 17.554 39.3378 19.7939 38.9128C19.7114 41.4747 19.7349 43.6353 19.7939 44.9576C19.7939 45.1465 19.7939 45.2999 19.7939 45.4534C19.3341 45.1347 18.9333 44.7332 18.615 44.2728C18.3792 43.8714 17.8723 43.7415 17.4715 43.9659C17.2357 44.1075 17.0824 44.3436 17.0588 44.6152V44.7569C16.5873 49.7863 16.5283 56.327 18.8743 58.9243C19.511 59.6681 20.4423 60.1049 21.4208 60.1049H21.5858H21.7509C22.7293 60.1049 23.6607 59.6681 24.2973 58.9243C26.6551 56.3033 26.5843 49.7627 26.1128 44.7569V44.5443C26.0774 44.0839 25.6648 43.7415 25.205 43.777C24.9339 43.8006 24.6863 43.954 24.5566 44.1902C24.1794 44.7569 23.6725 45.2409 23.083 45.5833C23.083 45.3826 23.083 45.1347 23.083 44.8749C23.083 43.47 23.083 41.2386 23.1537 38.535H24.5331C27.4331 39.4913 29.8617 41.5338 31.2881 44.2374C33.5045 48.523 38.5384 48.8654 40.0474 48.8654C41.5446 48.8654 46.5902 48.5349 48.8183 44.2256C50.2448 41.522 52.6733 39.4795 55.5734 38.535H56.9763C56.9763 41.274 56.9763 43.4582 56.9763 44.8159C56.9763 45.0874 56.9763 45.3236 56.9763 45.5361C56.3869 45.1819 55.8917 44.7096 55.5145 44.1429C55.2787 43.7415 54.7718 43.6117 54.371 43.836C54.1352 43.9777 53.9819 44.2138 53.9583 44.4853V44.627C53.4868 49.6564 53.4278 56.1971 55.7738 58.7945C56.4104 59.5382 57.3418 59.9751 58.3203 59.9751H58.4853H58.6504C59.6288 59.9751 60.5602 59.5382 61.1968 58.7945C63.5546 56.1735 63.4838 49.6328 63.0123 44.627V44.5443C62.9769 44.0839 62.5643 43.7415 62.1045 43.777C61.8334 43.8006 61.5858 43.954 61.4561 44.1902C61.1378 44.6506 60.737 45.052 60.2772 45.3708C60.2772 45.2173 60.2772 45.0638 60.2772 44.8749C60.2772 43.5054 60.2772 41.4039 60.2772 38.8419C62.5407 39.2788 64.6509 40.2941 66.4075 41.7817C69.6377 44.5798 71.9483 48.2751 73.0565 52.4073C73.0565 52.5372 76.4281 65.0281 77.7721 69.9277C76.1806 69.9867 74.3651 70.1638 71.8776 72.9855C71.4178 73.505 70.9934 74.0363 70.569 74.5439C68.4824 77.0823 66.6786 79.2664 63.0123 79.5852C58.3674 79.9276 40.7901 80.2345 40.0591 80.2345C39.8823 80.2345 21.7862 79.9394 17.0588 79.5498C13.3807 79.2546 11.577 77.0587 9.50211 74.5085C9.07771 73.9891 8.64151 73.4696 8.19353 72.9501C5.71785 70.1166 3.91413 69.9513 2.29905 69.8923C3.66657 64.9809 7.00285 52.5017 7.05 52.3365ZM76.7229 82.0999L76.5342 82.3124C75.0135 83.9771 73.7049 85.4057 60.5955 85.4057H19.4992C6.38982 85.4057 5.08124 83.9771 3.56047 82.3124L3.37184 82.0999C2.09863 80.3644 1.33235 74.6384 1.88643 71.5452H2.06327C3.54868 71.5452 4.83368 71.6514 6.93211 74.0363C7.38009 74.5439 7.79271 75.0516 8.20532 75.5593C10.4334 78.2747 12.5437 80.8485 16.9174 81.2027C21.7037 81.5923 39.3164 81.8874 40.0238 81.8992C40.7665 81.8992 58.3438 81.6041 63.1302 81.2027C67.5157 80.8485 69.6141 78.2747 71.854 75.5593C72.2666 75.0516 72.691 74.5439 73.1272 74.0363C75.2139 71.675 76.4989 71.5924 77.9961 71.5452H78.1965C78.7624 74.6384 77.9961 80.3644 76.7229 82.0999Z" fill="#1F1F1F"/>
</svg>
