<svg width="80" height="125" viewBox="0 0 80 125" fill="none" xmlns="http://www.w3.org/2000/svg">
<path d="M56.9168 66.7989H55.4938H55.4354H23.3487L19.9487 67.1405C17.2938 67.5847 14.8035 68.7299 12.7381 70.4573C9.59469 73.1281 7.24779 76.6113 5.95221 80.5263C4.9292 79.1157 3.6708 76.0803 7.09381 71.0113H7.04602C11.7504 64.0485 16.4549 63.7547 20.1611 63.6131L23.5611 63.4839C26.0319 63.4839 29.3133 63.4839 32.7239 63.4839H39.6867H40.5681H47.5434C50.9664 63.4839 54.2354 63.4255 56.7062 63.4839L60.0708 63.5777C63.8354 63.7547 68.469 64.0485 73.1858 71.0113V71.0237C76.6195 76.0927 75.3504 79.1281 74.2796 80.4927C72.9841 76.5777 70.6354 73.0945 67.4938 70.4237C65.4283 68.6962 62.9398 67.5511 60.2832 67.1069L56.9168 66.7989ZM40.1434 77.0892C38.8973 77.0892 34.6619 76.8184 32.8743 73.3724C31.8336 71.383 30.2991 69.6927 28.4159 68.4679H51.8584C49.977 69.6927 48.4407 71.383 47.4 73.3724C45.6248 76.8201 41.4142 77.0892 40.1434 77.0892ZM60.3274 68.7865C62.5823 69.2255 64.6867 70.2343 66.4442 71.7157C69.6619 74.5033 71.9717 78.1901 73.0779 82.3016C73.0779 82.4308 76.4425 94.875 77.7823 99.7564C76.1947 99.8148 74.3823 99.9918 71.9009 102.802C71.4425 103.319 71.0195 103.848 70.5947 104.355C68.5133 106.884 66.7133 109.059 63.0549 109.378C58.4212 109.719 40.8832 110.025 40.154 110.025C39.977 110.025 21.9221 109.732 17.2071 109.344C13.5381 109.05 11.7381 106.863 9.66726 104.321C9.24425 103.804 8.80885 103.286 8.36106 102.769C5.89027 99.9458 4.09204 99.7812 2.47965 99.7228C3.84425 94.829 7.17345 82.3971 7.21947 82.2325C8.33451 78.1476 10.6389 74.4874 13.8407 71.7175C15.5982 70.2662 17.6938 69.2821 19.9327 68.8591L23.285 68.4821H24.6619C27.5593 69.4308 29.977 71.4679 31.4018 74.1635C33.6124 78.4325 38.6354 78.7741 40.1416 78.7741C41.6354 78.7741 46.669 78.4449 48.892 74.1511C50.3204 71.4591 52.7363 69.4272 55.6319 68.4821H57.0319L60.3274 68.7865ZM20.3611 61.9281C16.6319 62.0697 10.9522 62.2803 5.7292 70.0679C3.64779 73.137 2.84779 75.9493 3.37699 78.5122C3.66018 79.983 4.41062 81.3246 5.51681 82.3352C4.7646 84.9458 1.57699 96.8255 0.576991 100.261L0 101.597L2.24602 101.365C3.72743 101.365 5.01062 101.471 7.10442 103.847C7.55221 104.353 7.96283 104.859 8.37522 105.364C10.5982 108.068 12.7044 110.633 17.0673 110.987C21.8425 111.374 39.4142 111.668 40.1204 111.68C40.8619 111.68 58.3982 111.387 63.1735 110.987C67.5487 110.634 69.6425 108.07 71.8779 105.364C72.2903 104.857 72.7133 104.351 73.1487 103.847C75.2301 101.494 76.5133 101.411 78.0071 101.365L80 101.951L79.6177 100.261C78.7009 96.8272 75.5009 84.8874 74.8195 82.3476C75.9257 81.337 76.6761 79.9971 76.9593 78.5246C77.4531 75.9954 76.6531 73.1493 74.6071 70.0803C69.3381 62.2945 59.9752 61.9405 59.9752 61.9405L56.5646 61.7989C54.1416 61.7989 51.0124 61.7989 47.531 61.7989C45.1788 61.7989 42.6496 61.7989 40.2035 61.7989C37.7575 61.7989 35.1575 61.7989 32.7345 61.7989C29.2053 61.7989 26.1239 61.7405 23.7009 61.7989L20.3611 61.9281Z" fill="black"/>
<path d="M79.3751 107.261L77.6883 107.188C76.1007 107.247 74.2883 107.424 71.8069 110.234C71.3485 110.751 70.9255 111.28 70.5007 111.786C68.4193 114.316 66.6193 116.491 62.9609 116.809C58.3273 117.151 40.7892 117.457 40.06 117.457C39.883 117.457 21.8282 117.163 17.1131 116.776C13.4441 116.482 11.6441 114.294 9.5733 111.753C9.15029 111.236 8.71489 110.717 8.2671 110.201C5.79631 107.378 3.99808 107.213 2.38569 107.155L0.437014 107.084L0.483032 107.694C-0.410774 110.834 0.283032 117.903 2.10604 120.326L2.32905 120.574C4.10427 122.516 5.64586 124.197 19.4547 124.197H60.5503C74.3591 124.197 75.8406 122.516 77.6759 120.574L77.899 120.326C79.722 117.903 80.4034 110.834 79.522 107.694L79.3751 107.261ZM76.6405 119.316L76.4529 119.528C74.9361 121.186 73.6299 122.609 60.5503 122.609H19.5485C6.46887 122.609 5.16445 121.186 3.64586 119.528L3.45825 119.316C2.18746 117.586 1.42285 111.882 1.97684 108.801H2.15383C3.63524 108.801 4.91843 108.907 7.01224 111.282C7.46002 111.788 7.87064 112.294 8.28303 112.799C10.506 115.503 12.6122 118.068 16.9751 118.422C21.7503 118.809 39.322 119.103 40.0282 119.116C40.7698 119.116 58.306 118.822 63.0813 118.422C67.4565 118.07 69.5503 115.505 71.7857 112.799C72.1981 112.293 72.6211 111.786 73.0565 111.282C75.1379 108.93 76.4211 108.847 77.9149 108.801H78.1149C78.676 111.882 77.9113 117.586 76.6405 119.316Z" fill="black"/>
<path d="M58.5821 58.1758H58.4299H58.2777C57.7538 58.1988 57.2476 57.9829 56.9007 57.5882C55.5485 56.082 55.0069 52.0714 55.3715 46.4732C56.1503 47.0732 57.0937 47.4218 58.076 47.4732C58.2494 47.5351 58.4335 47.567 58.6175 47.567C58.837 47.5581 59.0529 47.5068 59.2529 47.4148C60.0406 47.2643 60.7786 46.9245 61.4052 46.4271C61.7698 52.0254 61.2282 56.036 59.8759 57.5422C59.5574 57.9298 59.0848 58.1617 58.5821 58.1758ZM19.8034 38.7687C19.7202 41.321 19.745 43.4732 19.8034 44.79C19.8034 44.9776 19.8034 45.1316 19.8034 45.2838C19.3414 44.967 18.9432 44.5687 18.6264 44.1068C18.3945 43.7086 17.883 43.5741 17.4848 43.8059C17.2529 43.9404 17.1007 44.1794 17.0742 44.4466V44.5882C16.6034 49.5988 16.545 56.1156 18.8848 58.7033C19.522 59.4448 20.4476 59.8732 21.4246 59.8802H21.5892H21.7538C22.7308 59.8749 23.6583 59.4448 24.2936 58.7033C26.6459 56.0926 26.5751 49.5758 26.1043 44.5882V44.3758C26.0653 43.9156 25.6618 43.5741 25.2034 43.613C24.9326 43.636 24.6901 43.7882 24.5521 44.0236C24.1733 44.5918 23.6706 45.0661 23.0813 45.4112C23.0813 45.2112 23.0813 44.9634 23.0813 44.705C23.0813 43.305 23.0813 41.082 23.1521 38.3882L23.5644 31.7068C24.06 25.3015 25.5857 19.0183 28.0813 13.0997C32.0565 4.45547 36.8317 3.34927 38.9255 3.32626C39.2636 3.48202 39.6459 3.51918 40.0069 3.43246C40.368 3.52272 40.7485 3.49087 41.0883 3.33865C43.2052 3.33865 47.9574 4.51565 51.9202 13.1015C54.4122 19.0218 55.9326 25.305 56.4246 31.7086L56.8954 38.39C56.8954 41.1192 56.8954 43.2944 56.8954 44.6466C56.8954 44.9174 56.8954 45.1528 56.8954 45.3634C56.3113 45.0148 55.814 44.5404 55.437 43.9758C55.2052 43.5776 54.6936 43.4431 54.2954 43.6749C54.0636 43.8095 53.9114 44.0484 53.8848 44.3156V44.4572C53.414 49.4679 53.3556 55.9847 55.6954 58.5723C56.3326 59.3139 57.2583 59.7422 58.2352 59.7493H58.3998H58.5644C59.5414 59.744 60.4689 59.3139 61.1043 58.5723C63.4565 55.9617 63.3857 49.4448 62.9149 44.4572V44.3741C62.8759 43.9139 62.4724 43.5723 62.014 43.6112C61.7432 43.6342 61.5007 43.7864 61.3627 44.0218C61.0459 44.4838 60.6476 44.882 60.1857 45.1988C60.1857 45.0466 60.1857 44.8926 60.1857 44.705C60.1857 43.3404 60.1857 41.2466 60.1857 38.6944L59.8335 31.8484C59.2335 25.4732 57.9167 18.0289 55.0105 11.7121C49.6352 0.126264 42.4848 -0.21533 40.0016 0.0554669C37.5432 -0.21533 30.368 0.0554677 25.0406 11.6997C22.1361 18.0271 20.2175 31.836 20.2175 31.836L19.8034 38.7687ZM21.7326 58.1758H21.5804H21.4282C20.9202 58.1847 20.4335 57.9687 20.099 57.5882C18.7467 56.082 18.2052 52.0714 18.5698 46.4732C19.1963 46.9723 19.9361 47.3103 20.722 47.4608C20.9326 47.5581 21.1609 47.6094 21.3928 47.613C21.5768 47.613 21.7591 47.5811 21.9344 47.5192C22.8972 47.4413 23.814 47.0767 24.5698 46.4732C24.9344 52.0714 24.3928 56.082 23.0406 57.5882C22.7078 57.9634 22.2317 58.1776 21.7326 58.1758Z" fill="black"/>
</svg>
