<svg width="80" height="80" viewBox="0 0 80 80" fill="none" xmlns="http://www.w3.org/2000/svg">
<path fill-rule="evenodd" clip-rule="evenodd" d="M39.1921 20C44.9014 20 49.5463 24.6449 49.5463 30.3542C49.5463 36.0627 44.9014 40.7076 39.1921 40.7076C33.4828 40.7076 28.8379 36.0627 28.8379 30.3542C28.8379 24.6449 33.4828 20 39.1921 20ZM39.1921 21.4148C34.2633 21.4148 30.2539 25.425 30.2539 30.3539C30.2539 35.2819 34.2633 39.2922 39.1921 39.2922C44.121 39.2922 48.1304 35.2819 48.1304 30.3539C48.1304 25.425 44.1215 21.4148 39.1921 21.4148Z" fill="#1F1F1F"/>
<path d="M49.6463 30.3542C49.6463 24.5897 44.9567 19.9 39.1921 19.9V20.1C44.8462 20.1 49.4463 24.7001 49.4463 30.3542H49.6463ZM39.1921 40.8076C44.9567 40.8076 49.6463 36.1179 49.6463 30.3542H49.4463C49.4463 36.0074 44.8462 40.6076 39.1921 40.6076V40.8076ZM28.7379 30.3542C28.7379 36.1179 33.4276 40.8076 39.1921 40.8076V40.6076C33.538 40.6076 28.9379 36.0074 28.9379 30.3542H28.7379ZM39.1921 19.9C33.4275 19.9 28.7379 24.5897 28.7379 30.3542H28.9379C28.9379 24.7001 33.538 20.1 39.1921 20.1V19.9ZM30.3539 30.3539C30.3539 25.4803 34.3185 21.5148 39.1921 21.5148V21.3148C34.208 21.3148 30.1539 25.3698 30.1539 30.3539H30.3539ZM39.1921 39.1922C34.3185 39.1922 30.3539 35.2267 30.3539 30.3539H30.1539C30.1539 35.3372 34.208 39.3922 39.1921 39.3922V39.1922ZM48.0304 30.3539C48.0304 35.2267 44.0658 39.1922 39.1921 39.1922V39.3922C44.1763 39.3922 48.2304 35.3372 48.2304 30.3539H48.0304ZM39.1921 21.5148C44.0662 21.5148 48.0304 25.4803 48.0304 30.3539H48.2304C48.2304 25.3698 44.1767 21.3148 39.1921 21.3148V21.5148Z" fill="#1F1F1F"/>
<path fill-rule="evenodd" clip-rule="evenodd" d="M24.6147 60.0003C22.3471 60.0003 20 58.2994 20 55.4549C20 52.45 23.448 44.6514 39.1916 44.6514C54.9351 44.6514 58.3831 52.4496 58.3831 55.4549C58.3831 58.2994 56.0364 60.0003 53.7685 60.0003H24.6147ZM56.9672 55.4546C56.9672 53.019 53.7014 46.0666 39.1912 46.0666C24.681 46.0666 21.4152 53.019 21.4152 55.4546C21.4152 57.4875 23.0637 58.5848 24.6143 58.5848H53.7681C55.3188 58.5848 56.9672 57.4875 56.9672 55.4546Z" fill="#1F1F1F"/>
<path d="M19.9 55.4549C19.9 58.3645 22.3024 60.1003 24.6147 60.1003V59.9003C22.3919 59.9003 20.1 58.2342 20.1 55.4549H19.9ZM39.1916 44.5514C23.412 44.5514 19.9 52.3773 19.9 55.4549H20.1C20.1 52.5227 23.484 44.7514 39.1916 44.7514V44.5514ZM58.4831 55.4549C58.4831 52.3769 54.9711 44.5514 39.1916 44.5514V44.7514C54.8992 44.7514 58.2831 52.5223 58.2831 55.4549H58.4831ZM53.7685 60.1003C56.0812 60.1003 58.4831 58.3645 58.4831 55.4549H58.2831C58.2831 58.2342 55.9917 59.9003 53.7685 59.9003V60.1003ZM24.6147 60.1003H53.7685V59.9003H24.6147V60.1003ZM39.1912 46.1666C53.6712 46.1666 56.8672 53.0963 56.8672 55.4546H57.0672C57.0672 52.9417 53.7317 45.9666 39.1912 45.9666V46.1666ZM21.5152 55.4546C21.5152 53.0963 24.7112 46.1666 39.1912 46.1666V45.9666C24.6508 45.9666 21.3152 52.9417 21.3152 55.4546H21.5152ZM24.6143 58.4848C23.1056 58.4848 21.5152 57.4198 21.5152 55.4546H21.3152C21.3152 57.5551 23.0217 58.6848 24.6143 58.6848V58.4848ZM53.7681 58.4848H24.6143V58.6848H53.7681V58.4848ZM56.8672 55.4546C56.8672 57.4198 55.2768 58.4848 53.7681 58.4848V58.6848C55.3607 58.6848 57.0672 57.5551 57.0672 55.4546H56.8672Z" fill="#1F1F1F"/>
<circle cx="39.9994" cy="40.0003" r="32.9833" stroke="black" stroke-width="0.7"/>
</svg>
