<svg width="23" height="20" viewBox="0 0 23 20" fill="none" xmlns="http://www.w3.org/2000/svg">
<ellipse cx="10.4168" cy="18.1712" rx="1.61234" ry="1.60333" fill="white"/>
<ellipse cx="17.0447" cy="18.1712" rx="1.61209" ry="1.60309" fill="white"/>
<path fill-rule="evenodd" clip-rule="evenodd" d="M5.84418 4.36955H20.8329C21.2657 4.36955 21.6473 4.54649 21.8792 4.85488C22.1114 5.16327 22.1745 5.5771 22.0523 5.98997L19.7609 13.7367C19.528 14.524 18.6988 15.141 17.8735 15.141H9.5879C8.76091 15.141 7.93635 14.5208 7.71096 13.7298L5.1823 4.85729L4.59522 2.79824C4.32021 1.83335 3.38113 1.01772 2.54446 1.01724L0.710363 1.01628C0.497321 1.01628 0.324951 0.844628 0.324951 0.632777C0.325193 0.421407 0.497563 0.25 0.710363 0.25L2.54494 0.250481C3.71691 0.250963 4.96926 1.30011 5.33675 2.58903L5.84418 4.36955ZM19.0215 13.5203L21.3127 5.77379C21.3667 5.59227 21.3485 5.42881 21.2621 5.31421C21.1757 5.19938 21.0234 5.13607 20.8328 5.13607H6.06253L8.45247 13.5208C8.58199 13.9753 9.1129 14.3747 9.58813 14.3747H17.8735C18.3504 14.3747 18.8869 13.9753 19.0215 13.5203Z" fill="white"/>
<line x1="10.4796" y1="11.8167" x2="17.4056" y2="11.8167" stroke="white" stroke-width="0.7" stroke-linecap="round"/>
<line x1="9.39028" y1="8.56666" x2="18.4951" y2="8.56666" stroke="white" stroke-width="0.7" stroke-linecap="round"/>
</svg>
