<svg width="22" height="22" viewBox="0 0 22 22" fill="none" xmlns="http://www.w3.org/2000/svg">
<path fill-rule="evenodd" clip-rule="evenodd" d="M13.3946 6.96631C13.8041 6.96631 14.1886 7.12592 14.4777 7.41529L14.5757 7.51278C15.1732 8.1103 15.1732 9.08216 14.5764 9.67943L2.87963 21.376C2.5905 21.6653 2.20556 21.8244 1.79654 21.8244C1.38729 21.8244 1.00283 21.6653 0.713462 21.376L0.615 21.2768C0.326114 20.9884 0.166504 20.6037 0.166504 20.1946C0.166504 19.7854 0.325873 19.4009 0.615 19.1113L12.3118 7.4148C12.6011 7.12592 12.9856 6.96631 13.3946 6.96631ZM2.3377 20.8342L14.0345 9.13742C14.333 8.83891 14.333 8.35358 14.0347 8.05482L13.9367 7.95732C13.7913 7.81216 13.5994 7.73271 13.3948 7.73271C13.1904 7.73271 12.9986 7.81216 12.8541 7.95684L1.15736 19.6536C1.01243 19.798 0.932749 19.9899 0.932749 20.1948C0.932749 20.3989 1.01243 20.591 1.15712 20.7352L1.25582 20.8347C1.54422 21.1231 2.04881 21.1236 2.3377 20.8342Z" fill="#1F1F1F"/>
<path fill-rule="evenodd" clip-rule="evenodd" d="M21.1962 2.31191C21.5046 2.35668 21.7265 2.52015 21.8045 2.7604C21.8828 3.0009 21.7992 3.26379 21.5754 3.48166L20.4063 4.62131C20.4084 4.61953 20.4076 4.62563 20.4065 4.63289C20.4059 4.63739 20.4052 4.64233 20.4051 4.64611L20.6796 6.24028C20.7337 6.55661 20.6355 6.75329 20.5433 6.86259C20.4299 6.99668 20.2669 7.07058 20.0833 7.07058C19.9547 7.07058 19.8206 7.03447 19.6848 6.96273L18.2394 6.2032L18.2154 6.20946L16.7844 6.96273C16.4544 7.13655 16.1181 7.09081 15.9257 6.86259C15.8335 6.75329 15.7353 6.55661 15.7894 6.24028L16.0653 4.63118C16.0633 4.63608 16.0605 4.6289 16.0574 4.62123C16.0557 4.61684 16.0538 4.6123 16.0521 4.60976L14.8932 3.48141C14.6695 3.26379 14.5862 3.0009 14.6645 2.7604C14.7425 2.52015 14.9644 2.35693 15.2733 2.31191L16.8891 2.07671C16.8851 2.07671 16.8897 2.07254 16.8951 2.06759C16.8984 2.06447 16.9022 2.06105 16.9043 2.05817L17.6195 0.606998C17.7577 0.327741 17.9816 0.166687 18.2349 0.166687C18.4876 0.166687 18.712 0.327741 18.8497 0.607961L19.5726 2.07141C19.571 2.06757 19.5772 2.07107 19.5841 2.07493C19.588 2.07712 19.5921 2.07942 19.595 2.08056L21.1962 2.31191ZM19.6487 4.75997C19.6076 4.52332 19.6998 4.24021 19.8719 4.07266L20.9242 3.04663L19.4699 2.83502C19.2315 2.8006 18.991 2.62534 18.8849 2.4094L18.2346 1.09232L17.5839 2.4106C17.4782 2.62558 17.2375 2.8006 16.9994 2.83502L15.5451 3.04663L16.5976 4.07266C16.7695 4.24021 16.8615 4.52332 16.8205 4.75997L16.5721 6.20873L17.8733 5.52431C18.0052 5.45546 18.1424 5.44054 18.2349 5.44054C18.3268 5.44054 18.4643 5.45546 18.5958 5.52431L19.8969 6.20825L19.6487 4.75997Z" fill="#1F1F1F"/>
<path fill-rule="evenodd" clip-rule="evenodd" d="M10.5155 2.22457C10.8022 2.26646 11.0085 2.42077 11.082 2.64707C11.1554 2.87336 11.0788 3.11916 10.8718 3.32113L9.88719 4.2812L10.12 5.6368C10.1701 5.92905 10.0774 6.1125 9.99071 6.21505C9.8831 6.3424 9.72854 6.4127 9.55425 6.4127C9.43532 6.4127 9.31182 6.37948 9.18736 6.31424L7.96995 5.67387L6.75253 6.31376C6.44535 6.47529 6.12998 6.42955 5.94871 6.21505C5.86204 6.11274 5.7696 5.92905 5.81967 5.63728L6.05247 4.28168L5.06712 3.32113C4.86057 3.11916 4.78377 2.87312 4.85744 2.64707C4.93111 2.42029 5.13718 2.26646 5.42318 2.22457L6.78479 2.02741L7.39314 0.794343C7.52169 0.534827 7.73162 0.386292 7.96995 0.386292C8.20804 0.386292 8.4182 0.534827 8.54628 0.794343L9.15486 2.02741L10.5155 2.22457ZM9.12779 4.38666C9.08975 4.16734 9.17497 3.90518 9.33458 3.74966L10.1574 2.94728L9.02042 2.78213C8.79918 2.74939 8.57674 2.58738 8.47828 2.38829L7.96984 1.35744L7.46116 2.38829C7.36245 2.58738 7.14001 2.74939 6.91998 2.78213L5.78176 2.94728L6.60461 3.74966C6.76422 3.90494 6.8492 4.16734 6.8114 4.38738L6.61737 5.51933L7.63401 4.98441C7.75726 4.92013 7.88462 4.90641 7.96984 4.90641C8.05482 4.90641 8.18193 4.91989 8.30494 4.98441L9.32231 5.51933L9.12779 4.38666Z" fill="#1F1F1F"/>
<path fill-rule="evenodd" clip-rule="evenodd" d="M19.6495 12.7935L21.0101 12.9911C21.2969 13.033 21.5029 13.1873 21.5766 13.4136C21.65 13.6404 21.5732 13.8857 21.3662 14.0877L20.3816 15.0473L20.6136 16.4033C20.664 16.6951 20.5713 16.8786 20.4848 16.9811C20.3772 17.1089 20.2224 17.1792 20.0484 17.1792C19.9295 17.1792 19.806 17.146 19.6815 17.0808L18.4643 16.4404L17.2469 17.0803C16.9402 17.2413 16.6244 17.1966 16.4431 16.9811C16.3567 16.8788 16.264 16.6956 16.314 16.4033L16.5468 15.0477L15.5615 14.0872C15.3547 13.8857 15.2779 13.6397 15.3516 13.4136C15.4255 13.1868 15.6316 13.033 15.9176 12.9911L17.2789 12.7935L17.8878 11.5604C18.0156 11.3011 18.2258 11.1523 18.4641 11.1523C18.7022 11.1523 18.9123 11.3011 19.0407 11.5599L19.6495 12.7935ZM19.6224 15.1531C19.5841 14.9338 19.6693 14.6717 19.829 14.5161L20.652 13.7138L19.515 13.5486C19.2931 13.5154 19.0704 13.3534 18.9724 13.1538L18.4644 12.1239L17.9558 13.1543C17.8571 13.3538 17.6344 13.5159 17.4141 13.5481L16.2764 13.7138L17.099 14.5157C17.2586 14.6709 17.3438 14.9338 17.306 15.1531L17.1117 16.2858L18.1289 15.7509C18.2521 15.6861 18.3792 15.6729 18.4644 15.6729C18.5492 15.6729 18.6763 15.6859 18.7986 15.7499L19.8164 16.2853L19.6224 15.1531Z" fill="#1F1F1F"/>
</svg>
