<svg width="22" height="22" viewBox="0 0 22 22" fill="none" xmlns="http://www.w3.org/2000/svg">
<path fill-rule="evenodd" clip-rule="evenodd" d="M13.3948 6.96628C13.8043 6.96628 14.1888 7.12589 14.4779 7.41526L14.5759 7.51275C15.1734 8.11027 15.1734 9.08213 14.5766 9.6794L2.87987 21.3759C2.59074 21.6653 2.2058 21.8244 1.79679 21.8244C1.38753 21.8244 1.00307 21.6653 0.713706 21.3759L0.615244 21.2767C0.326358 20.9883 0.166748 20.6036 0.166748 20.1946C0.166748 19.7854 0.326117 19.4009 0.615244 19.1113L12.312 7.41477C12.6014 7.12589 12.9858 6.96628 13.3948 6.96628ZM2.33794 20.8342L14.0347 9.13739C14.3332 8.83887 14.3332 8.35355 14.0349 8.05479L13.937 7.95729C13.7916 7.81212 13.5997 7.73268 13.3951 7.73268C13.1907 7.73268 12.9988 7.81212 12.8544 7.95681L1.1576 19.6536C1.01268 19.798 0.932993 19.9899 0.932993 20.1948C0.932993 20.3989 1.01268 20.591 1.15736 20.7352L1.25606 20.8346C1.54447 21.123 2.04906 21.1235 2.33794 20.8342Z" fill="#BDAA66"/>
<path fill-rule="evenodd" clip-rule="evenodd" d="M21.1964 2.31188C21.5048 2.35665 21.7268 2.52012 21.8048 2.76037C21.883 3.00087 21.7995 3.26376 21.5756 3.48163L20.4066 4.62128C20.4086 4.6195 20.4078 4.6256 20.4068 4.63286C20.4062 4.63736 20.4055 4.6423 20.4054 4.64608L20.6798 6.24025C20.734 6.55658 20.6358 6.75326 20.5436 6.86256C20.4302 6.99665 20.2672 7.07055 20.0835 7.07055C19.9549 7.07055 19.8209 7.03444 19.6851 6.9627L18.2397 6.20317L18.2156 6.20943L16.7847 6.9627C16.4546 7.13652 16.1183 7.09078 15.9259 6.86256C15.8337 6.75326 15.7355 6.55658 15.7897 6.24025L16.0656 4.63115C16.0636 4.63605 16.0607 4.62887 16.0576 4.62119C16.0559 4.61681 16.0541 4.61226 16.0523 4.60972L14.8934 3.48138C14.6698 3.26376 14.5865 3.00087 14.6647 2.76037C14.7427 2.52012 14.9647 2.35689 15.2735 2.31188L16.8894 2.07668C16.8854 2.07668 16.8899 2.0725 16.8953 2.06756C16.8987 2.06444 16.9024 2.06102 16.9045 2.05814L17.6198 0.606967C17.758 0.327711 17.9819 0.166656 18.2351 0.166656C18.4879 0.166656 18.7123 0.327711 18.85 0.60793L19.5729 2.07138C19.5712 2.06754 19.5774 2.07104 19.5843 2.0749C19.5882 2.07709 19.5923 2.07939 19.5953 2.08053L21.1964 2.31188ZM19.649 4.75994C19.6078 4.52329 19.7 4.24018 19.8722 4.07263L20.9244 3.0466L19.4701 2.83499C19.2318 2.80057 18.9913 2.62531 18.8851 2.40937L18.2349 1.09229L17.5842 2.41057C17.4785 2.62555 17.2378 2.80057 16.9997 2.83499L15.5454 3.0466L16.5979 4.07263C16.7698 4.24018 16.8617 4.52329 16.8208 4.75994L16.5723 6.2087L17.8735 5.52428C18.0055 5.45543 18.1427 5.44051 18.2351 5.44051C18.3271 5.44051 18.4646 5.45543 18.596 5.52428L19.8972 6.20822L19.649 4.75994Z" fill="#BDAA66"/>
<path fill-rule="evenodd" clip-rule="evenodd" d="M10.516 2.22451C10.8027 2.2664 11.009 2.42071 11.0825 2.64701C11.1559 2.8733 11.0793 3.11909 10.8723 3.32107L9.88768 4.28114L10.1205 5.63674C10.1705 5.92899 10.0779 6.11244 9.9912 6.21499C9.88358 6.34234 9.72903 6.41264 9.55474 6.41264C9.43581 6.41264 9.31231 6.37942 9.18785 6.31418L7.97044 5.67381L6.75302 6.31369C6.44584 6.47523 6.13047 6.42949 5.9492 6.21499C5.86253 6.11268 5.77009 5.92899 5.82016 5.63722L6.05295 4.28162L5.06761 3.32107C4.86106 3.11909 4.78426 2.87306 4.85793 2.64701C4.93159 2.42023 5.13767 2.2664 5.42366 2.22451L6.78528 2.02734L7.39363 0.794282C7.52218 0.534766 7.73211 0.38623 7.97044 0.38623C8.20853 0.38623 8.41869 0.534766 8.54676 0.794282L9.15535 2.02734L10.516 2.22451ZM9.12828 4.38659C9.09024 4.16728 9.17546 3.90512 9.33507 3.7496L10.1579 2.94722L9.02091 2.78207C8.79967 2.74933 8.57723 2.58732 8.47876 2.38822L7.97032 1.35738L7.46164 2.38822C7.36294 2.58732 7.1405 2.74933 6.92046 2.78207L5.78225 2.94722L6.6051 3.7496C6.76471 3.90488 6.84969 4.16728 6.81189 4.38732L6.61786 5.51927L7.63449 4.98435C7.75775 4.92007 7.8851 4.90635 7.97032 4.90635C8.05531 4.90635 8.18242 4.91983 8.30543 4.98435L9.32279 5.51927L9.12828 4.38659Z" fill="#BDAA66"/>
<path fill-rule="evenodd" clip-rule="evenodd" d="M19.6497 12.7934L21.0104 12.9911C21.2971 13.033 21.5032 13.1873 21.5768 13.4136C21.6503 13.6403 21.5735 13.8857 21.3664 14.0876L20.3818 15.0472L20.6139 16.4033C20.6642 16.6951 20.5715 16.8785 20.4851 16.9811C20.3775 17.1089 20.2227 17.1792 20.0486 17.1792C19.9297 17.1792 19.8062 17.146 19.6817 17.0807L18.4646 16.4404L17.2472 17.0803C16.9405 17.2413 16.6246 17.1965 16.4433 16.9811C16.3569 16.8788 16.2642 16.6956 16.3143 16.4033L16.5471 15.0477L15.5617 14.0872C15.355 13.8857 15.2782 13.6396 15.3518 13.4136C15.4257 13.1868 15.6318 13.033 15.9178 12.9911L17.2792 12.7934L17.888 11.5604C18.0158 11.3011 18.226 11.1523 18.4643 11.1523C18.7024 11.1523 18.9126 11.3011 19.0409 11.5599L19.6497 12.7934ZM19.6226 15.1531C19.5844 14.9338 19.6696 14.6716 19.8292 14.5161L20.6523 13.7137L19.5153 13.5486C19.2933 13.5154 19.0706 13.3533 18.9726 13.1538L18.4647 12.1239L17.956 13.1542C17.8573 13.3538 17.6346 13.5158 17.4143 13.5481L16.2766 13.7137L17.0992 14.5156C17.2588 14.6709 17.3441 14.9338 17.3063 15.1531L17.112 16.2858L18.1291 15.7509C18.2524 15.6861 18.3795 15.6729 18.4647 15.6729C18.5494 15.6729 18.6765 15.6859 18.7988 15.7499L19.8167 16.2853L19.6226 15.1531Z" fill="#BDAA66"/>
</svg>
