<svg width="30" height="30" viewBox="0 0 30 30" fill="none" xmlns="http://www.w3.org/2000/svg">
<path d="M13.3794 14.7241V22.7241C13.3794 22.8758 13.5035 23 13.6553 23H15.8622C16.0139 23 16.138 22.8758 16.138 22.7241V14.7241" stroke="#ACACAC" stroke-width="0.8" stroke-miterlimit="10" stroke-linecap="round" stroke-linejoin="round"/>
<path d="M13.3793 11.9658H12.2759C12.1241 11.9658 12 12.09 12 12.2417V14.4486C12 14.6003 12.1241 14.7244 12.2759 14.7244H13.3793" stroke="#ACACAC" stroke-width="0.8" stroke-miterlimit="10" stroke-linecap="round" stroke-linejoin="round"/>
<path d="M16.1377 14.7244H18.0687C18.2205 14.7244 18.3694 14.6031 18.3998 14.4541L18.8439 12.2362C18.8715 12.0872 18.7722 11.9658 18.6205 11.9658H16.1377" stroke="#ACACAC" stroke-width="0.8" stroke-miterlimit="10" stroke-linecap="round" stroke-linejoin="round"/>
<path d="M16.1736 7H18.3446V9.75862H16.4136L16.1377 10.0345V11.9655" stroke="#ACACAC" stroke-width="0.8" stroke-miterlimit="10" stroke-linecap="round" stroke-linejoin="round"/>
<path d="M13.3794 11.9658L13.3904 9.78369" stroke="#ACACAC" stroke-width="0.8" stroke-miterlimit="10" stroke-linecap="round" stroke-linejoin="round"/>
<path d="M16.1736 7C14.2067 7 13.3901 8.32138 13.3901 9.78345" stroke="#ACACAC" stroke-width="0.8" stroke-miterlimit="10" stroke-linecap="round" stroke-linejoin="round"/>
<circle cx="15" cy="15" r="14.6" stroke="#ACACAC" stroke-width="0.8"/>
</svg>
