<svg width="40" height="40" viewBox="0 0 40 40" fill="none" xmlns="http://www.w3.org/2000/svg">
<path d="M17.8389 19.6318V30.2985C17.8389 30.5008 18.0044 30.6663 18.2067 30.6663H21.1492C21.3515 30.6663 21.517 30.5008 21.517 30.2985V19.6318" stroke="#1F1F1F" stroke-width="0.8" stroke-miterlimit="10" stroke-linecap="round" stroke-linejoin="round"/>
<path d="M17.8391 15.9541H16.3678C16.1655 15.9541 16 16.1196 16 16.3219V19.2644C16 19.4667 16.1655 19.6323 16.3678 19.6323H17.8391" stroke="#1F1F1F" stroke-width="0.8" stroke-miterlimit="10" stroke-linecap="round" stroke-linejoin="round"/>
<path d="M21.5171 19.6323H24.0918C24.2941 19.6323 24.4927 19.4704 24.5332 19.2718L25.1254 16.3146C25.1621 16.1159 25.0297 15.9541 24.8274 15.9541H21.5171" stroke="#1F1F1F" stroke-width="0.8" stroke-miterlimit="10" stroke-linecap="round" stroke-linejoin="round"/>
<path d="M21.5649 9.33301H24.4596V13.0112H21.8849L21.5171 13.379V15.9537" stroke="#1F1F1F" stroke-width="0.8" stroke-miterlimit="10" stroke-linecap="round" stroke-linejoin="round"/>
<path d="M17.8389 15.9543L17.8536 13.0449" stroke="#1F1F1F" stroke-width="0.8" stroke-miterlimit="10" stroke-linecap="round" stroke-linejoin="round"/>
<path d="M21.5653 9.33301C18.9427 9.33301 17.854 11.0948 17.854 13.0443" stroke="#1F1F1F" stroke-width="0.8" stroke-miterlimit="10" stroke-linecap="round" stroke-linejoin="round"/>
<circle cx="20" cy="20" r="19.6" stroke="#1F1F1F" stroke-width="0.8"/>
</svg>
