<svg width="24" height="21" viewBox="0 0 24 21" fill="none" xmlns="http://www.w3.org/2000/svg">
<path fill-rule="evenodd" clip-rule="evenodd" d="M11.2838 20.4638C11.1083 20.3549 9.61934 19.4316 8.75333 18.8223C2.07258 14.1265 -1.07654 8.66895 0.329277 4.22448C1.12845 1.69765 3.35324 0 5.86507 0C7.4615 0 9.07262 0.617181 10.2846 1.69382C11.2131 2.51885 11.838 3.83144 12.0005 4.19574C12.179 3.79504 12.7993 2.50768 13.7157 1.69382C14.9274 0.6175 16.5379 0 18.1346 0C20.6468 0 22.8715 1.69765 23.6707 4.2248C25.0765 8.66927 21.9274 14.1265 15.2467 18.8223C14.3811 19.4311 12.8936 20.3534 12.716 20.4635C12.7085 20.4681 12.7034 20.4713 12.7007 20.473C12.5072 20.5933 12.2581 20.6594 12.0002 20.6594C11.7428 20.6594 11.4935 20.5933 11.2987 20.473C11.296 20.4713 11.291 20.4682 11.2838 20.4638ZM5.86536 1.01597C3.7983 1.01597 1.96304 2.42849 1.29828 4.53068C0.0332714 8.53102 3.03872 13.563 9.33856 17.9908C10.1624 18.5703 11.6258 19.4793 11.8136 19.596C11.8257 19.6035 11.8325 19.6077 11.8335 19.6083C11.8545 19.6211 11.9136 19.6435 12.0008 19.6435C12.0879 19.6435 12.1464 19.6218 12.1671 19.6083C12.1678 19.6079 12.1708 19.6061 12.1761 19.6028C12.3073 19.5214 13.8201 18.5833 14.6627 17.9908C20.9625 13.5627 23.968 8.53134 22.7026 4.531C22.0379 2.42849 20.2023 1.01597 18.1352 1.01597C16.784 1.01597 15.4194 1.53992 14.3913 2.4534C13.5209 3.22582 12.9275 4.60935 12.8984 4.67729C12.8978 4.67866 12.8975 4.6795 12.8973 4.67978C12.6489 5.37998 12.2284 5.48854 12.0005 5.48854C11.7725 5.48854 11.352 5.3803 11.0937 4.6552C11.0937 4.6552 11.0933 4.65441 11.0927 4.65285C11.0648 4.58853 10.4732 3.21995 9.61027 2.4534C8.58153 1.53992 7.21626 1.01597 5.86536 1.01597Z" fill="#1F1F1F"/>
</svg>
