<svg width="80" height="80" viewBox="0 0 80 80" fill="none" xmlns="http://www.w3.org/2000/svg">
<path d="M26.4093 30.6964H53.5907C54.372 30.6964 55.0058 30.0627 55.0058 29.2813C55.0058 28.5 54.372 27.8662 53.5907 27.8662H26.4093C25.628 27.8662 24.9951 28.5 24.9951 29.2813C24.9951 30.0627 25.6289 30.6964 26.4093 30.6964Z" fill="#C6B67E"/>
<path d="M26.4093 17.835H53.5907C54.372 17.835 55.0058 17.2012 55.0058 16.4199C55.0058 15.6386 54.372 15.0039 53.5907 15.0039H26.4093C25.628 15.0039 24.9951 15.6386 24.9951 16.4199C24.9951 17.2012 25.6289 17.835 26.4093 17.835Z" fill="#C6B67E"/>
<path fill-rule="evenodd" clip-rule="evenodd" d="M77.7724 32.8738C76.3564 32.0791 74.5182 32.2524 72.7262 33.3476L71.4249 34.1431V9.98845C71.4258 4.48 66.9449 0 61.4364 0H18.5636C13.0551 0 8.57422 4.48 8.57422 9.98845V34.1431L7.27378 33.3476C5.48178 32.2524 3.64267 32.0791 2.22667 32.8738C0.812445 33.6676 0 35.3271 0 37.4267V57.1493V70.0107C0 75.5191 4.48178 80 9.98933 80H70.0116C75.5182 80 80 75.5191 80 70.0107V57.1493V37.4267C80 35.3271 79.1884 33.6676 77.7724 32.8738ZM11.4049 9.98901C11.4049 6.04057 14.6174 2.82812 18.5649 2.82812H61.4378C65.3854 2.82812 68.5969 6.03968 68.5969 9.98901V35.8726L57.8378 42.4468L45.8485 49.7739C42.6805 51.7126 37.3241 51.7126 34.1552 49.7739L20.8218 41.6264L11.4049 35.8726V9.98901ZM77.1703 70.01V57.1487H77.1721V37.426C77.1721 36.3949 76.8805 35.6145 76.3907 35.3398C75.9027 35.0669 75.0832 35.2234 74.2032 35.7611L59.3134 44.8598L47.3249 52.1869C45.2707 53.4411 42.6352 54.0687 40.0014 54.0687C37.3658 54.0687 34.7321 53.4411 32.6787 52.1869L19.3454 44.0394L5.79962 35.7611C4.91873 35.2225 4.10095 35.0642 3.61206 35.3407C3.12317 35.6145 2.83073 36.3949 2.83073 37.426V57.1487V70.01C2.83073 73.9585 6.04228 77.17 9.98984 77.17H70.0112C73.9596 77.17 77.1703 73.9576 77.1703 70.01Z" fill="#C6B67E"/>
</svg>
