<svg width="40" height="40" viewBox="0 0 40 40" fill="none" xmlns="http://www.w3.org/2000/svg">
<circle cx="20" cy="20" r="19.6" stroke="#1F1F1F" stroke-width="0.8"/>
<path fill-rule="evenodd" clip-rule="evenodd" d="M14.554 19.9932C14.554 16.9898 16.9946 14.5407 19.998 14.5407C23.0143 14.5407 25.4506 16.9898 25.4506 19.9932C25.4506 23.0095 23.01 25.4458 19.998 25.4458C16.9903 25.4501 14.554 23.0095 14.554 19.9932ZM25.6267 9.33301H14.3779C11.6065 9.33301 9.3335 11.5931 9.3335 14.3774V25.6263C9.3335 28.3934 11.6065 30.6663 14.3779 30.6663H25.6267C28.4067 30.6663 30.6668 28.3934 30.6668 25.6263V14.3774C30.6668 11.5931 28.4067 9.33301 25.6267 9.33301ZM14.3779 10.592H25.6267C27.7107 10.592 29.4079 12.2892 29.4079 14.3731V25.622C29.4079 27.7059 27.7107 29.4031 25.6267 29.4031H14.3779C12.294 29.4031 10.5967 27.7059 10.5967 25.622V14.3774C10.5924 12.2892 12.2897 10.592 14.3779 10.592ZM26.7439 12.186C26.1295 12.186 25.6353 12.6802 25.6353 13.2946C25.6353 13.909 26.1295 14.4032 26.7439 14.4032C27.3583 14.4032 27.8525 13.909 27.8525 13.2946C27.8525 12.6802 27.3583 12.186 26.7439 12.186ZM26.8771 19.9932C26.8771 16.1992 23.8006 13.1141 19.998 13.1141C16.1997 13.1141 13.1146 16.1992 13.1146 19.9932C13.1146 23.8001 16.1997 26.8723 19.9937 26.8723C23.8006 26.8766 26.8771 23.8001 26.8771 19.9932Z" fill="#1F1F1F"/>
</svg>
