<svg width="24" height="24" viewBox="0 0 24 24" fill="none" xmlns="http://www.w3.org/2000/svg">
<path fill-rule="evenodd" clip-rule="evenodd" d="M24 4.28293C24 6.64427 22.0784 8.5656 19.7168 8.5656C18.1643 8.5656 16.8061 7.73253 16.0549 6.49227L8.17973 10.2331C8.4256 10.7723 8.56613 11.3696 8.56613 12C8.56613 12.6304 8.42533 13.2275 8.17973 13.7669L16.0547 17.5069C16.8059 16.2672 18.1643 15.4339 19.7168 15.4339C22.0787 15.4339 24 17.3552 24 19.7168C24 22.0784 22.0787 24 19.7168 24C17.3555 24 15.4341 22.0784 15.4341 19.7171C15.4341 19.2104 15.5272 18.7259 15.6896 18.2739L7.75093 14.5032C6.97227 15.5792 5.70987 16.2832 4.28293 16.2832C1.9216 16.2832 0 14.3611 0 12C0 9.63813 1.9216 7.7168 4.28293 7.7168C5.70987 7.7168 6.97227 8.4208 7.75093 9.4968L15.6896 5.72613C15.5269 5.2744 15.4339 4.78987 15.4339 4.2832C15.4339 1.92107 17.3555 0 19.7168 0C22.0787 0 24 1.92107 24 4.28293ZM23.1508 4.2832C23.1508 2.38933 21.6105 0.8488 19.7167 0.8488C17.8233 0.8488 16.2831 2.38933 16.2828 4.2832C16.2828 6.1768 17.8231 7.71707 19.7167 7.71707C21.6105 7.71707 23.1508 6.1768 23.1508 4.2832ZM4.28282 15.4341C2.38923 15.4341 0.848958 13.8939 0.848958 12C0.848958 10.1061 2.38949 8.5656 4.28282 8.5656C6.17642 8.5656 7.71696 10.1061 7.71696 12C7.71696 13.8939 6.17642 15.4341 4.28282 15.4341ZM23.1508 19.7171C23.1508 17.8235 21.6105 16.2832 19.7167 16.2832C17.8233 16.2832 16.2831 17.8235 16.2828 19.7171C16.2828 21.6109 17.8231 23.1512 19.7167 23.1512C21.6105 23.1512 23.1508 21.6109 23.1508 19.7171Z" fill="#1F1F1F"/>
</svg>
