<svg width="14" height="14" viewBox="0 0 14 14" fill="none" xmlns="http://www.w3.org/2000/svg">
<path fill-rule="evenodd" clip-rule="evenodd" d="M11.1249 11.9497C11.3527 12.1775 11.7221 12.1775 11.9499 11.9497C12.1777 11.7219 12.1777 11.3525 11.9499 11.1247L7.82504 6.99985L11.9498 2.87514C12.1776 2.64733 12.1776 2.27799 11.9498 2.05018C11.722 1.82237 11.3526 1.82237 11.1248 2.05018L7.00008 6.1749L2.87536 2.05018C2.64756 1.82237 2.27821 1.82237 2.05041 2.05018C1.8226 2.27799 1.8226 2.64733 2.05041 2.87514L6.17512 6.99985L2.05026 11.1247C1.82246 11.3525 1.82246 11.7219 2.05026 11.9497C2.27807 12.1775 2.64741 12.1775 2.87522 11.9497L7.00008 7.82481L11.1249 11.9497Z" fill="white"/>
</svg>
