<svg width="30" height="30" viewBox="0 0 30 30" fill="none" xmlns="http://www.w3.org/2000/svg">
<circle cx="15" cy="15" r="14.6" stroke="#ACACAC" stroke-width="0.8"/>
<path d="M23.8055 9.65455C23.15 9.93773 22.4436 10.1255 21.7055 10.2114C22.4595 9.77227 23.0386 9.08182 23.3091 8.25773C22.6091 8.665 21.8264 8.95455 20.9959 9.11682C20.3277 8.42955 19.4495 8 18.3964 8C16.1691 8 14.7468 9.56864 14.7468 11.5191C14.7468 11.7927 14.7723 12.1459 14.8359 12.4036C11.7973 12.2541 9.03545 10.7809 7.23455 8.64591C6.92273 9.16773 6.74136 9.77545 6.74136 10.4214C6.74136 11.6464 7.38727 12.7282 8.36727 13.3614C7.76909 13.3423 7.20591 13.1832 6.71273 12.9191C6.71273 12.935 6.71273 12.9477 6.71273 12.9636C6.71273 14.6755 7.97273 16.1041 9.64318 16.4286C9.33773 16.5082 9.01318 16.5527 8.68227 16.5527C8.44682 16.5527 8.21773 16.5305 7.995 16.4891C8.45955 17.8923 9.80864 18.9136 11.4091 18.9423C10.1586 19.8905 8.58364 20.4568 6.86864 20.4568C6.57591 20.4568 6.28318 20.4409 6 20.4059C7.61318 21.405 9.48727 22 11.7145 22C18.4377 22 21.9377 16.6164 21.9377 11.9486C21.9377 11.7959 21.9345 11.6432 21.9282 11.4936C22.6409 10.9941 23.3155 10.3641 23.8055 9.65455Z" stroke="#ACACAC" stroke-width="0.8" stroke-miterlimit="10" stroke-linecap="round" stroke-linejoin="round"/>
</svg>
