<svg width="30" height="30" viewBox="0 0 30 30" fill="none" xmlns="http://www.w3.org/2000/svg">
<circle cx="15" cy="15" r="14.6" stroke="#ACACAC" stroke-width="0.8"/>
<path d="M15.4451 22C20.2214 22 22.38 21.5963 22.38 21.5963C23.0605 21.4693 23.8484 20.8409 24.1316 20.1995C24.1316 20.1995 24.8805 18.5 24.8805 15C24.8805 11.5 24.1316 9.80047 24.1316 9.80047C23.8484 9.16233 23.0637 8.53395 22.38 8.40372C22.38 8.40372 20.2214 8 15.4451 8H15.4321C10.6558 8 8.49721 8.40372 8.49721 8.40372C7.81674 8.5307 7.02884 9.15907 6.74884 9.80047C6.74884 9.80047 6 11.5 6 15C6 18.5 6.74884 20.1995 6.74884 20.1995C7.03209 20.8409 7.81674 21.466 8.50047 21.5963C8.50047 21.5963 10.6591 22 15.4353 22H15.4451Z" stroke="#ACACAC" stroke-width="0.8" stroke-miterlimit="10" stroke-linecap="round" stroke-linejoin="round"/>
<path d="M13.1626 18.4188V11.5815L19.0231 14.8374L13.1626 18.4188Z" stroke="#ACACAC" stroke-width="0.8" stroke-miterlimit="10" stroke-linecap="round" stroke-linejoin="round"/>
</svg>
